<!-- Generated by readme-aura https://github.com/collectioneur/readme-aura -->
<svg width="130" height="44" viewBox="0 0 130 44" xmlns="http://www.w3.org/2000/svg"><defs><clipPath id="satori_bc-id"><path x="0" y="0" width="130" height="44" d="M22,0 h86 a22,22 0 0 1 22,22 v0 a22,22 0 0 1 -22,22 h-86 a22,22 0 0 1 -22,-22 v0 a22,22 0 0 1 22,-22"/></clipPath></defs><mask id="satori_om-id"><rect x="1" y="1" width="128" height="42" fill="#fff"/><path width="130" height="44" fill="none" stroke="#000" stroke-width="2" d="M6.444000000000001,6.444000000000001 A22,22 0 0 1 22,0 h86 a22,22 0 0 1 22,22 v0 a22,22 0 0 1 -22,22 h-86 a22,22 0 0 1 -22,-22 v0 A22,22 0 0 1 6.444000000000001,6.444000000000001"/></mask><path x="0" y="0" width="130" height="44" fill="#08080c" d="M22,0 h86 a22,22 0 0 1 22,22 v0 a22,22 0 0 1 -22,22 h-86 a22,22 0 0 1 -22,-22 v0 a22,22 0 0 1 22,-22"/><path width="130" height="44" clip-path="url(#satori_bc-id)" fill="none" stroke="#222222" stroke-width="2" d="M6.444000000000001,6.444000000000001 A22,22 0 0 1 22,0 h86 a22,22 0 0 1 22,22 v0 a22,22 0 0 1 -22,22 h-86 a22,22 0 0 1 -22,-22 v0 A22,22 0 0 1 6.444000000000001,6.444000000000001"/><clipPath id="satori_cp-id-0"><rect x="22" y="12" width="20" height="20"/></clipPath><mask id="satori_om-id-0"><rect x="22" y="12" width="20" height="20" fill="#fff"/></mask><svg x="22" y="12" width="20" height="20" preserveAspectRatio="none" clip-path="url(#satori_cp-id-0)" mask="url(#satori_om-id-0)"><path d="M20.447 20.452h-3.554v-5.569c0-1.328-.027-3.037-1.852-3.037-1.853 0-2.136 1.445-2.136 2.939v5.667H9.351V9h3.414v1.561h.046c.477-.9 1.637-1.85 3.37-1.85 3.601 0 4.267 2.37 4.267 5.455v6.286zM5.337 7.433c-1.144 0-2.063-.926-2.063-2.065 0-1.138.92-2.063 2.063-2.063 1.14 0 2.064.925 2.064 2.063 0 1.139-.925 2.065-2.064 2.065zm1.782 13.019H3.555V9h3.564v11.452zM22.225 0H1.771C.792 0 0 .774 0 1.729v20.542C0 23.227.792 24 1.771 24h20.451C23.2 24 24 23.227 24 22.271V1.729C24 .774 23.2 0 22.222 0h.003z"></path></svg><mask id="satori_om-id-0-0"><rect x="22" y="12" width="0" height="20" fill="#fff"/></mask><mask id="satori_om-id-1"><rect x="50" y="14" width="59" height="17" fill="#fff"/></mask><g  ><path fill="#ffffff" d="M57.4 28L50.9 28L50.9 17.8L53.0 17.8L53.0 26.3L57.4 26.3L57.4 28ZM60.8 28L58.8 28L58.8 20.4L60.8 20.4L60.8 28ZM59.8 19.4L59.8 19.4Q59.4 19.4 59.0 19.1Q58.7 18.7 58.7 18.3L58.7 18.3Q58.7 17.9 59.0 17.6Q59.4 17.3 59.8 17.3L59.8 17.3Q60.3 17.3 60.6 17.6Q60.9 17.9 60.9 18.3L60.9 18.3Q60.9 18.7 60.6 19.1Q60.3 19.4 59.8 19.4ZM64.6 23.6L64.6 23.6L64.6 28L62.6 28L62.6 20.4L64.5 20.4L64.5 21.9Q64.8 21.2 65.3 20.8L65.3 20.8Q66.0 20.3 66.9 20.3L66.9 20.3Q67.7 20.3 68.3 20.6Q68.9 21.0 69.2 21.6Q69.6 22.2 69.6 23.1L69.6 23.1L69.6 28L67.5 28L67.5 23.5Q67.5 22.8 67.1 22.4Q66.8 22.0 66.1 22.0L66.1 22.0Q65.7 22.0 65.4 22.2Q65.0 22.4 64.8 22.7Q64.6 23.1 64.6 23.6ZM73.4 28L71.3 28L71.3 17.8L73.4 17.8L73.4 23.3L73.5 23.3L76.0 20.4L78.3 20.4L75.5 23.7L78.5 28L76.1 28L73.9 24.9L73.4 25.5L73.4 28ZM82.9 28.2L82.9 28.2Q81.7 28.2 80.9 27.7Q80.0 27.2 79.6 26.3Q79.1 25.4 79.1 24.2L79.1 24.2Q79.1 23.0 79.6 22.1Q80.0 21.3 80.8 20.8Q81.7 20.3 82.8 20.3L82.8 20.3Q83.5 20.3 84.2 20.5Q84.8 20.7 85.3 21.2Q85.8 21.7 86.1 22.4Q86.4 23.2 86.4 24.1L86.4 24.1L86.4 24.7L81.1 24.7Q81.2 25.3 81.4 25.7L81.4 25.7Q81.6 26.2 82.0 26.4Q82.4 26.6 82.9 26.6L82.9 26.6Q83.3 26.6 83.6 26.5Q83.9 26.4 84.1 26.2Q84.3 26.0 84.4 25.7L84.4 25.7L86.2 26.1Q86.1 26.7 85.6 27.2Q85.1 27.6 84.5 27.9Q83.8 28.2 82.9 28.2ZM81.1 23.4L81.1 23.4L84.4 23.4Q84.3 23.0 84.2 22.7L84.2 22.7Q84.0 22.3 83.7 22.0Q83.3 21.8 82.8 21.8L82.8 21.8Q82.3 21.8 81.9 22.1Q81.5 22.3 81.3 22.7L81.3 22.7Q81.2 23.0 81.1 23.4ZM90.6 28.1L90.6 28.1Q89.7 28.1 89.0 27.7Q88.3 27.2 87.9 26.3Q87.4 25.5 87.4 24.2L87.4 24.2Q87.4 22.9 87.9 22.0Q88.3 21.1 89.0 20.7Q89.7 20.3 90.5 20.3L90.5 20.3Q91.2 20.3 91.6 20.5Q92.1 20.7 92.3 21.0Q92.6 21.3 92.7 21.6L92.7 21.6L92.8 21.6L92.8 17.8L94.8 17.8L94.8 28L92.8 28L92.8 26.8L92.7 26.8Q92.6 27.1 92.3 27.4Q92.0 27.7 91.6 27.9Q91.2 28.1 90.6 28.1ZM91.2 26.5L91.2 26.5Q91.7 26.5 92.1 26.2Q92.4 25.9 92.6 25.4Q92.8 24.9 92.8 24.2L92.8 24.2Q92.8 23.5 92.6 23.0Q92.5 22.5 92.1 22.2Q91.7 21.9 91.2 21.9L91.2 21.9Q90.6 21.9 90.3 22.2Q89.9 22.5 89.7 23.0Q89.5 23.5 89.5 24.2L89.5 24.2Q89.5 24.9 89.7 25.4Q89.9 25.9 90.3 26.2Q90.7 26.5 91.2 26.5ZM96.6 17.8L98.7 17.8L98.7 28L96.6 28L96.6 17.8ZM102.6 23.6L102.6 23.6L102.6 28L100.5 28L100.5 20.4L102.5 20.4L102.5 21.9Q102.8 21.2 103.3 20.8L103.3 20.8Q103.9 20.3 104.9 20.3L104.9 20.3Q105.7 20.3 106.2 20.6Q106.8 21.0 107.2 21.6Q107.5 22.2 107.5 23.1L107.5 23.1L107.5 28L105.4 28L105.4 23.5Q105.4 22.8 105.1 22.4Q104.7 22.0 104.1 22.0L104.1 22.0Q103.6 22.0 103.3 22.2Q102.9 22.4 102.8 22.7Q102.6 23.1 102.6 23.6Z "/></g></svg>